#!OML:ASF E:\pregnant2\Project 1\Capture day 1\Session 1\pregnant2.ASF
:FULLY-SPECIFIED
:DEGREES
2621
root -1.2555 17.4897 20.8264 23.9556 -0.799454 -6.17152
lowerback -15.9691 2.33127 0.697732
upperback -13.2588 3.01156 -0.297274
thorax -5.20623 1.47449 -0.374112
lowerneck -13.3088 -6.45205 -8.38603
upperneck 38.2848 -9.50911 5.37184
head 16.797 -4.48114 2.12247
rclavicle -3.97569e-016 6.36111e-015
rhumerus -117.831 31.3389 -147.578
rradius 85.9002
rwrist 36.6012
rhand -53.6072 -58.4212
rfingers 7.12502
rthumb -26.0473 -86.6555
lclavicle -3.97569e-016 6.36111e-015
lhumerus -113.19 -37.4882 141.974
lradius 93.3989
lwrist -14.1624
lhand -43.6512 32.0564
lfingers 7.12502
lthumb -16.4854 61.376
rfemur -72.5788 8.26574 -26.723
rtibia 30.494
rfoot -1.64999 -28.2602
rtoes 12.7007
lfemur -29.9092 -1.68885 -25.5863
ltibia 17.3055
lfoot -8.58284 12.6531
ltoes 15.2253
2622
root -1.25028 17.492 20.8275 23.9478 -0.649602 -6.22455
lowerback -15.9576 2.35117 0.763302
upperback -13.255 3.0329 -0.276185
thorax -5.20575 1.4821 -0.386427
lowerneck -13.2452 -6.50387 -8.44913
upperneck 38.2501 -9.57944 5.39311
head 16.7766 -4.51749 2.13066
rclavicle -3.97569e-016 2.38542e-015
rhumerus -117.898 31.3012 -147.616
rradius 85.989
rwrist 36.5433
rhand -53.5971 -58.3904
rfingers 7.12502
rthumb -26.0376 -86.6261
lclavicle -3.97569e-016 2.38542e-015
lhumerus -113.148 -37.5075 141.907
lradius 93.3915
lwrist -14.241
lhand -43.5738 31.9554
lfingers 7.12502
lthumb -16.4109 61.2811
rfemur -72.0107 8.13714 -26.8107
rtibia 30.7343
rfoot -0.949763 -27.2163
rtoes 12.2334
lfemur -29.881 -1.63804 -25.5397
ltibia 17.2562
lfoot -8.56906 12.4042
ltoes 15.1547
2623
root -1.24553 17.4937 20.8287 23.9479 -0.495227 -6.27163
lowerback -15.9555 2.36455 0.814533
upperback -13.2515 3.04722 -0.250424
thorax -5.20187 1.48749 -0.38623
lowerneck -13.1764 -6.55409 -8.51368
upperneck 38.2079 -9.64721 5.41563
head 16.7509 -4.55299 2.14023
rclavicle -5.4467e-014 -1.03368e-014
rhumerus -117.958 31.273 -147.627
rradius 86.08
rwrist 36.4945
rhand -53.5891 -58.3453
rfingers 7.12502
rthumb -26.0299 -86.5822
lclavicle -5.4467e-014 -1.03368e-014
lhumerus -113.125 -37.5242 141.878
lradius 93.3799
lwrist -14.2772
lhand -43.5039 31.8584
lfingers 7.12502
lthumb -16.3436 61.1897
rfemur -71.444 7.93709 -26.7609
rtibia 31.0491
rfoot -0.138689 -26.0763
rtoes 11.9413
lfemur -29.8759 -1.58075 -25.4996
ltibia 17.2357
lfoot -8.57356 12.1381
ltoes 15.0695
2624
root -1.24114 17.495 20.83 23.9574 -0.33491 -6.31626
lowerback -15.9624 2.37125 0.855817
upperback -13.2492 3.05386 -0.217976
thorax -5.19551 1.49009 -0.373949
lowerneck -13.1081 -6.60197 -8.58145
upperneck 38.1618 -9.7106 5.43943
head 16.7232 -4.58699 2.15171
rclavicle 2.66371e-014 -2.54444e-014
rhumerus -118.014 31.2562 -147.616
rradius 86.1701
rwrist 36.4545
rhand -53.5832 -58.3029
rfingers 7.12502
rthumb -26.0243 -86.5406
lclavicle 2.66371e-014 -2.54444e-014
lhumerus -113.114 -37.5367 141.883
lradius 93.3652
lwrist -14.2696
lhand -43.4454 31.7595
lfingers 7.12502
lthumb -16.2872 61.0955
rfemur -70.8836 7.67521 -26.5937
rtibia 31.4368
rfoot 0.775372 -24.8887
rtoes 11.8032
lfemur -29.8933 -1.52256 -25.4604
ltibia 17.2398
lfoot -8.5996 11.8626
ltoes 14.9985
2625
root -1.2371 17.4961 20.8313 23.9723 -0.170971 -6.35705
lowerback -15.9786 2.37195 0.886044
upperback -13.2453 3.05373 -0.179991
thorax -5.18351 1.4904 -0.34998
lowerneck -13.0415 -6.6473 -8.65185
upperneck 38.1115 -9.76963 5.46524
head 16.6937 -4.61926 2.16528
rclavicle 1.46107e-014 -7.95139e-015
rhumerus -118.066 31.2516 -147.586
rradius 86.26
rwrist 36.4278
rhand -53.5806 -58.2904
rfingers 7.12502
rthumb -26.0218 -86.5285
lclavicle 1.46107e-014 -7.95139e-015
lhumerus -113.113 -37.546 141.917
lradius 93.3486
lwrist -14.2181
lhand -43.4038 31.6684
lfingers 7.12502
lthumb -16.2472 61.0076
rfemur -70.3336 7.3721 -26.3453
rtibia 31.8974
rfoot 1.76828 -23.7157
rtoes 11.7775
lfemur -29.9248 -1.46714 -25.4218
ltibia 17.262
lfoot -8.64653 11.5816
ltoes 14.9569
2626
root -1.23326 17.4971 20.8331 23.9875 -0.00436947 -6.39851
lowerback -15.9959 2.36851 0.913801
upperback -13.2424 3.04847 -0.136945
thorax -5.17238 1.48852 -0.319849
lowerneck -12.9825 -6.68994 -8.72154
upperneck 38.067 -9.82337 5.48773
head 16.6684 -4.64948 2.17813
rclavicle -6.95746e-015 -1.27222e-014
rhumerus -118.108 31.2507 -147.531
rradius 86.3465
rwrist 36.4145
rhand -53.5816 -58.2959
rfingers 7.12502
rthumb -26.0227 -86.5338
lclavicle -6.95746e-015 -1.27222e-014
lhumerus -113.124 -37.5454 141.979
lradius 93.3269
lwrist -14.1474
lhand -43.4235 31.6099
lfingers 7.12502
lthumb -16.2661 60.9476
rfemur -69.794 7.03503 -26.015
rtibia 32.4328
rfoot 2.82929 -22.5808
rtoes 11.7766
lfemur -29.9626 -1.4165 -25.3789
ltibia 17.3011
lfoot -8.71559 11.3035
ltoes 14.964
2627
root -1.22965 17.498 20.8349 24.0062 0.169303 -6.43948
lowerback -16.0163 2.35999 0.937734
upperback -13.2396 3.03701 -0.0891587
thorax -5.16046 1.48404 -0.283171
lowerneck -12.9416 -6.73088 -8.78869
upperneck 38.034 -9.87273 5.5051
head 16.6528 -4.67768 2.1887
rclavicle 4.44284e-014 5.56597e-015
rhumerus -118.161 31.2469 -147.49
rradius 86.4155
rwrist 36.3285
rhand -53.6951 -58.3912
rfingers 7.12502
rthumb -26.1314 -86.6131
lclavicle 4.44284e-014 5.56597e-015
lhumerus -113.143 -37.5382 142.065
lradius 93.3016
lwrist -14.0601
lhand -43.4722 31.5813
lfingers 7.12502
lthumb -16.3131 60.9151
rfemur -69.2687 6.66597 -25.6193
rtibia 33.0462
rfoot 3.92136 -21.5245
rtoes 11.8094
lfemur -30.0108 -1.36811 -25.334
ltibia 17.354
lfoot -8.79611 11.0186
ltoes 15.0063
2628
root -1.22644 17.4986 20.8368 24.0291 0.349345 -6.47955
lowerback -16.0375 2.34619 0.956279
upperback -13.2383 3.01927 -0.0369917
thorax -5.15027 1.47698 -0.239588
lowerneck -12.9171 -6.76999 -8.85345
upperneck 38.0131 -9.91809 5.51844
head 16.647 -4.70394 2.19749
rclavicle -2.98177e-016 -7.15625e-015
rhumerus -118.207 31.2512 -147.434
rradius 86.4863
rwrist 36.2609
rhand -53.787 -58.4664
rfingers 7.12502
rthumb -26.2194 -86.6752
lclavicle -2.98177e-016 -7.15625e-015
lhumerus -113.167 -37.5252 142.168
lradius 93.2736
lwrist -13.966
lhand -43.5254 31.5845
lfingers 7.12502
lthumb -16.3643 60.9141
rfemur -68.763 6.26765 -25.1665
rtibia 33.7421
rfoot 5.00785 -20.5665
rtoes 11.8774
lfemur -30.0721 -1.31937 -25.2887
ltibia 17.4213
lfoot -8.88267 10.728
ltoes 15.0765
2629
root -1.22344 17.4991 20.8391 24.0474 0.532602 -6.52167
lowerback -16.0535 2.33163 0.979286
upperback -13.2394 3.00016 0.0157867
thorax -5.1453 1.46889 -0.198291
lowerneck -12.9024 -6.80825 -8.91345
upperneck 38.0077 -9.96128 5.52465
head 16.6508 -4.72926 2.20261
rclavicle -4.04527e-014 -1.35174e-014
rhumerus -118.256 31.2405 -147.382
rradius 86.5442
rwrist 36.1303
rhand -53.9525 -58.5034
rfingers 7.12502
rthumb -26.3778 -86.6886
lclavicle -4.04527e-014 -1.35174e-014
lhumerus -113.206 -37.5042 142.293
lradius 93.2399
lwrist -13.8791
lhand -43.5906 31.6069
lfingers 7.12502
lthumb -16.4271 60.9314
rfemur -68.2739 5.84581 -24.6498
rtibia 34.5255
rfoot 6.052 -19.7018
rtoes 11.9676
lfemur -30.1342 -1.27805 -25.2384
ltibia 17.5027
lfoot -8.96428 10.447
ltoes 15.1234
2630
root -1.22072 17.4992 20.8422 24.0607 0.716414 -6.56292
lowerback -16.0685 2.31645 1.00366
upperback -13.2412 2.98007 0.0684378
thorax -5.14155 1.46019 -0.158066
lowerneck -12.8953 -6.84507 -8.96869
upperneck 38.0155 -10.001 5.52287
head 16.6621 -4.75327 2.20397
rclavicle -1.36167e-014 -2.3059e-014
rhumerus -118.302 31.2254 -147.326
rradius 86.5996
rwrist 35.9898
rhand -54.1158 -58.4745
rfingers 7.12502
rthumb -26.5342 -86.6361
lclavicle -1.36167e-014 -2.3059e-014
lhumerus -113.252 -37.4778 142.429
lradius 93.2035
lwrist -13.8051
lhand -43.6462 31.6463
lfingers 7.12502
lthumb -16.4806 60.9664
rfemur -67.8047 5.39649 -24.0692
rtibia 35.3997
rfoot 7.04745 -18.923
rtoes 12.0216
lfemur -30.1951 -1.24953 -25.1854
ltibia 17.596
lfoot -9.04327 10.1849
ltoes 15.157
2631
root -1.21849 17.4987 20.8455 24.0764 0.900611 -6.59849
lowerback -16.087 2.29918 1.02155
upperback -13.2449 2.9579 0.120733
thorax -5.13834 1.4509 -0.11475
lowerneck -12.8887 -6.88074 -9.02275
upperneck 38.03 -10.0374 5.5155
head 16.6763 -4.77651 2.20332
rclavicle -2.83268e-014 -5.56597e-015
rhumerus -118.336 31.2201 -147.247
rradius 86.668
rwrist 35.9092
rhand -54.1951 -58.3918
rfingers 7.12502
rthumb -26.61 -86.542
lclavicle -2.83268e-014 -5.56597e-015
lhumerus -113.299 -37.4498 142.572
lradius 93.1671
lwrist -13.7346
lhand -43.6786 31.6944
lfingers 7.12502
lthumb -16.5117 61.0118
rfemur -67.3675 4.9124 -23.4376
rtibia 36.3676
rfoot 7.97076 -18.2219
rtoes 11.9617
lfemur -30.2621 -1.24553 -25.1306
ltibia 17.6959
lfoot -9.11348 9.9529
ltoes 15.173
2632
root -1.21647 17.4977 20.8494 24.0887 1.07899 -6.63014
lowerback -16.1071 2.28266 1.03788
upperback -13.2483 2.93678 0.172204
thorax -5.13413 1.44221 -0.0712464
lowerneck -12.8811 -6.91464 -9.07854
upperneck 38.0487 -10.0702 5.50582
head 16.6921 -4.79875 2.20275
rclavicle 3.04141e-014 2.78299e-014
rhumerus -118.358 31.2249 -147.142
rradius 86.7477
rwrist 35.895
rhand -54.1893 -58.2527
rfingers 7.12502
rthumb -26.6045 -86.4037
lclavicle 3.04141e-014 2.78299e-014
lhumerus -113.344 -37.4185 142.714
lradius 93.1323
lwrist -13.6634
lhand -43.6981 31.7335
lfingers 7.12502
lthumb -16.5306 61.0493
rfemur -66.9646 4.40654 -22.7643
rtibia 37.4311
rfoot 8.83393 -17.5976
rtoes 11.8295
lfemur -30.326 -1.27521 -25.0702
ltibia 17.8026
lfoot -9.1783 9.77005
ltoes 15.1662
2633
root -1.21469 17.4964 20.8534 24.0986 1.24672 -6.65711
lowerback -16.1281 2.2672 1.04892
upperback -13.2501 2.91749 0.222931
thorax -5.12763 1.4348 -0.0252866
lowerneck -12.8689 -6.94611 -9.13683
upperneck 38.0625 -10.099 5.49794
head 16.7041 -4.81968 2.20423
rclavicle -1.73937e-014 -3.97569e-015
rhumerus -118.371 31.2465 -147.019
rradius 86.8374
rwrist 35.9549
rhand -54.1245 -58.2105
rfingers 7.12502
rthumb -26.5425 -86.371
lclavicle -1.73937e-014 -3.97569e-015
lhumerus -113.376 -37.389 142.845
lradius 93.1023
lwrist -13.5878
lhand -43.7074 31.7765
lfingers 7.12502
lthumb -16.5396 61.0916
rfemur -66.6067 3.88996 -22.0677
rtibia 38.5952
rfoot 9.63915 -17.0411
rtoes 11.618
lfemur -30.3894 -1.34457 -25.0019
ltibia 17.9174
lfoot -9.24015 9.64321
ltoes 15.162
2634
root -1.21327 17.4944 20.8575 24.1134 1.39861 -6.67872
lowerback -16.151 2.25382 1.05196
upperback -13.2547 2.90174 0.272387
thorax -5.12369 1.42967 0.0241867
lowerneck -12.8466 -6.97599 -9.19849
upperneck 38.0693 -10.1251 5.49104
head 16.7098 -4.84012 2.20749
rclavicle 1.49089e-014 -9.54166e-015
rhumerus -118.389 31.2716 -146.903
rradius 86.9236
rwrist 36.0266
rhand -54.0614 -58.2287
rfingers 7.12502
rthumb -26.4821 -86.3982
lclavicle 1.49089e-014 -9.54166e-015
lhumerus -113.395 -37.3553 142.96
lradius 93.0794
lwrist -13.4999
lhand -43.7312 31.8362
lfingers 7.12502
lthumb -16.5624 61.1494
rfemur -66.3091 3.36017 -21.3557
rtibia 39.8643
rfoot 10.3937 -16.5265
rtoes 11.3097
lfemur -30.4632 -1.45176 -24.9273
ltibia 18.0453
lfoot -9.3009 9.57528
ltoes 15.1601
